<svg width="280" height="280" viewBox="0 0 280 280" fill="none" xmlns="http://www.w3.org/2000/svg">
<g clip-path="url(#clip0_979_159)">
<rect width="280" height="280" rx="64" fill="url(#paint0_linear_979_159)"/>
<g opacity="0.5" filter="url(#filter0_f_979_159)">
<circle cx="221.497" cy="272.5" r="137.5" fill="#1687D8"/>
</g>
<g filter="url(#filter1_d_979_159)">
<path d="M234.828 146.079C234.828 147.184 233.932 148.079 232.828 148.079H229.661C227.533 148.079 225.887 148.586 224.722 149.599C223.557 150.561 222.696 151.853 222.138 153.474C221.581 155.044 221.252 156.817 221.151 158.793C221.049 160.768 220.999 162.769 220.999 164.796V190.25C220.999 194.505 220.315 198.355 218.947 201.8C217.63 205.295 215.73 208.284 213.248 210.766C210.817 213.299 207.853 215.249 204.358 216.617C200.913 217.985 197.038 218.668 192.732 218.668H181.663C180.559 218.668 179.663 217.773 179.663 216.668V203.952C179.663 202.847 180.559 201.952 181.663 201.952H189.541C193.188 201.952 195.772 200.863 197.291 198.685C198.811 196.506 199.571 193.036 199.571 188.275V163.2C199.571 160.566 199.85 157.957 200.407 155.373C200.964 152.79 201.724 150.434 202.686 148.307C203.649 146.179 204.789 144.356 206.106 142.836C207.284 141.431 208.544 140.411 209.884 139.777C210.168 139.642 210.361 139.363 210.361 139.049C210.361 138.761 210.2 138.499 209.948 138.361C206.993 136.741 204.547 134.358 202.61 131.21C200.635 127.918 199.622 123.587 199.571 118.217V90.9388C199.571 86.8863 198.811 83.6696 197.291 81.2888C195.772 78.8573 193.188 77.6415 189.541 77.6415H181.663C180.559 77.6415 179.663 76.7461 179.663 75.6415V63.001C179.663 61.8964 180.559 61.001 181.663 61.001H192.732C197.089 61.001 201.015 61.6848 204.51 63.0526C208.005 64.3696 210.969 66.2692 213.4 68.7514C215.832 71.1829 217.706 74.1463 219.023 77.6415C220.34 81.0862 220.999 84.9107 220.999 89.1152V115.482C220.999 117.356 221.049 119.23 221.151 121.105C221.252 122.979 221.556 124.676 222.062 126.195C222.569 127.715 223.354 128.956 224.418 129.919C225.532 130.831 227.077 131.286 229.053 131.286H232.828C233.932 131.286 234.828 132.182 234.828 133.286V146.079Z" fill="url(#paint1_linear_979_159)"/>
<path d="M44.9951 133.286C44.9951 132.182 45.8905 131.286 46.9951 131.286H50.7699C52.7455 131.286 54.2652 130.831 55.329 129.919C56.4434 128.956 57.2539 127.715 57.7605 126.195C58.267 124.676 58.571 122.979 58.6723 121.105C58.7736 119.23 58.8243 117.356 58.8243 115.482V89.1152C58.8243 84.9107 59.4828 81.0862 60.7999 77.6415C62.1169 74.1463 63.9912 71.1829 66.4227 68.7514C68.8542 66.2692 71.8176 64.3696 75.3129 63.0526C78.8081 61.6848 82.734 61.001 87.0904 61.001H98.1597C99.2643 61.001 100.16 61.8964 100.16 63.001V75.6415C100.16 76.7461 99.2643 77.6415 98.1597 77.6415H90.2818C86.6345 77.6415 84.051 78.8573 82.5314 81.2888C81.0117 83.6696 80.2518 86.8863 80.2518 90.9388V118.217C80.2012 123.587 79.1627 127.918 77.1365 131.21C75.2482 134.358 72.8278 136.741 69.8751 138.361C69.6232 138.499 69.4621 138.761 69.4621 139.049C69.4621 139.363 69.6546 139.642 69.9385 139.777C71.2791 140.411 72.5387 141.431 73.7172 142.836C75.0342 144.356 76.174 146.179 77.1365 148.307C78.0989 150.434 78.8588 152.79 79.416 155.373C79.9732 157.957 80.2518 160.566 80.2518 163.2V188.275C80.2518 193.036 81.0117 196.506 82.5314 198.685C84.051 200.863 86.6345 201.952 90.2818 201.952H98.1597C99.2643 201.952 100.16 202.847 100.16 203.952V216.668C100.16 217.773 99.2643 218.668 98.1597 218.668H87.0904C82.7846 218.668 78.8841 217.985 75.3888 216.617C71.9442 215.249 68.9808 213.299 66.4987 210.766C64.0672 208.284 62.1676 205.295 60.7999 201.8C59.4828 198.355 58.8243 194.505 58.8243 190.25V164.796C58.8243 162.769 58.7736 160.768 58.6723 158.793C58.571 156.817 58.2417 155.044 57.6845 153.474C57.1273 151.853 56.2661 150.561 55.101 149.599C53.9359 148.586 52.2896 148.079 50.162 148.079H46.9951C45.8905 148.079 44.9951 147.184 44.9951 146.079V133.286Z" fill="url(#paint2_linear_979_159)"/>
</g>
<g filter="url(#filter2_d_979_159)">
<path opacity="0.4" fill-rule="evenodd" clip-rule="evenodd" d="M110.819 69.7083C110.819 66.3945 113.506 63.7083 116.819 63.7083H137.819C141.133 63.7083 143.819 66.3945 143.819 69.7083C143.819 73.022 141.133 75.7083 137.819 75.7083H116.819C113.506 75.7083 110.819 73.022 110.819 69.7083ZM110.82 89.2098C110.82 86.1723 113.283 83.7098 116.32 83.7098H138.32C141.358 83.7098 143.82 86.1723 143.82 89.2098C143.82 92.2474 141.358 94.7098 138.32 94.7098H116.32C113.283 94.7098 110.82 92.2474 110.82 89.2098ZM116.319 183.708C113.282 183.708 110.819 186.171 110.819 189.208C110.819 192.246 113.282 194.708 116.319 194.708H138.319C141.357 194.708 143.819 192.246 143.819 189.208C143.819 186.171 141.357 183.708 138.319 183.708H116.319ZM148.82 89.2098C148.82 86.1723 151.283 83.7098 154.32 83.7098H165.32C168.358 83.7098 170.82 86.1723 170.82 89.2098C170.82 92.2474 168.358 94.7098 165.32 94.7098H154.32C151.283 94.7098 148.82 92.2474 148.82 89.2098ZM116.32 123.71C113.283 123.71 110.82 126.172 110.82 129.21C110.82 132.247 113.283 134.71 116.32 134.71H126.32C129.358 134.71 131.82 132.247 131.82 129.21C131.82 126.172 129.358 123.71 126.32 123.71H116.32ZM110.819 109.208C110.819 106.171 113.282 103.708 116.319 103.708H151.319C154.357 103.708 156.819 106.171 156.819 109.208C156.819 112.246 154.357 114.708 151.319 114.708H116.319C113.282 114.708 110.819 112.246 110.819 109.208ZM116.32 163.709C113.283 163.709 110.82 166.172 110.82 169.209C110.82 172.247 113.283 174.709 116.32 174.709H151.32C154.358 174.709 156.82 172.247 156.82 169.209C156.82 166.172 154.358 163.709 151.32 163.709H116.32ZM110.819 149.208C110.819 146.171 113.282 143.708 116.319 143.708H158.319C161.357 143.708 163.819 146.171 163.819 149.208C163.819 152.246 161.357 154.708 158.319 154.708H116.319C113.282 154.708 110.819 152.246 110.819 149.208ZM116.319 203.708C113.282 203.708 110.819 206.171 110.819 209.208C110.819 212.246 113.282 214.708 116.319 214.708H165.319C168.357 214.708 170.819 212.246 170.819 209.208C170.819 206.171 168.357 203.708 165.319 203.708H116.319Z" fill="url(#paint3_linear_979_159)"/>
</g>
<g style="mix-blend-mode:plus-lighter" opacity="0.1" filter="url(#filter3_f_979_159)">
<circle cx="47.9443" cy="36.2778" r="98.5" fill="#CCFF60"/>
</g>
</g>
<defs>
<filter id="filter0_f_979_159" x="-76.003" y="-24.9996" width="595" height="595" filterUnits="userSpaceOnUse" color-interpolation-filters="sRGB">
<feFlood flood-opacity="0" result="BackgroundImageFix"/>
<feBlend mode="normal" in="SourceGraphic" in2="BackgroundImageFix" result="shape"/>
<feGaussianBlur stdDeviation="80" result="effect1_foregroundBlur_979_159"/>
</filter>
<filter id="filter1_d_979_159" x="40.9951" y="59.001" width="197.833" height="165.667" filterUnits="userSpaceOnUse" color-interpolation-filters="sRGB">
<feFlood flood-opacity="0" result="BackgroundImageFix"/>
<feColorMatrix in="SourceAlpha" type="matrix" values="0 0 0 0 0 0 0 0 0 0 0 0 0 0 0 0 0 0 127 0" result="hardAlpha"/>
<feOffset dy="2"/>
<feGaussianBlur stdDeviation="2"/>
<feComposite in2="hardAlpha" operator="out"/>
<feColorMatrix type="matrix" values="0 0 0 0 0 0 0 0 0 0 0 0 0 0 0 0 0 0 0.25 0"/>
<feBlend mode="normal" in2="BackgroundImageFix" result="effect1_dropShadow_979_159"/>
<feBlend mode="normal" in="SourceGraphic" in2="effect1_dropShadow_979_159" result="shape"/>
</filter>
<filter id="filter2_d_979_159" x="106.819" y="61.7083" width="68.001" height="159" filterUnits="userSpaceOnUse" color-interpolation-filters="sRGB">
<feFlood flood-opacity="0" result="BackgroundImageFix"/>
<feColorMatrix in="SourceAlpha" type="matrix" values="0 0 0 0 0 0 0 0 0 0 0 0 0 0 0 0 0 0 127 0" result="hardAlpha"/>
<feOffset dy="2"/>
<feGaussianBlur stdDeviation="2"/>
<feComposite in2="hardAlpha" operator="out"/>
<feColorMatrix type="matrix" values="0 0 0 0 0 0 0 0 0 0 0 0 0 0 0 0 0 0 0.25 0"/>
<feBlend mode="normal" in2="BackgroundImageFix" result="effect1_dropShadow_979_159"/>
<feBlend mode="normal" in="SourceGraphic" in2="effect1_dropShadow_979_159" result="shape"/>
</filter>
<filter id="filter3_f_979_159" x="-130.556" y="-142.222" width="357" height="357" filterUnits="userSpaceOnUse" color-interpolation-filters="sRGB">
<feFlood flood-opacity="0" result="BackgroundImageFix"/>
<feBlend mode="normal" in="SourceGraphic" in2="BackgroundImageFix" result="shape"/>
<feGaussianBlur stdDeviation="40" result="effect1_foregroundBlur_979_159"/>
</filter>
<linearGradient id="paint0_linear_979_159" x1="140" y1="33.5" x2="140" y2="280" gradientUnits="userSpaceOnUse">
<stop stop-color="#134F4F"/>
<stop offset="1" stop-color="#051313"/>
</linearGradient>
<linearGradient id="paint1_linear_979_159" x1="191.142" y1="74.501" x2="260.057" y2="106.919" gradientUnits="userSpaceOnUse">
<stop stop-color="#00DDB8"/>
<stop offset="1" stop-color="#00A99F"/>
</linearGradient>
<linearGradient id="paint2_linear_979_159" x1="56.4737" y1="74.501" x2="125.389" y2="106.919" gradientUnits="userSpaceOnUse">
<stop stop-color="#00DDB8"/>
<stop offset="1" stop-color="#00A99F"/>
</linearGradient>
<linearGradient id="paint3_linear_979_159" x1="140.82" y1="63.7083" x2="140.82" y2="214.708" gradientUnits="userSpaceOnUse">
<stop stop-color="#03E0B9"/>
<stop offset="1" stop-color="#01ADAD"/>
</linearGradient>
<clipPath id="clip0_979_159">
<rect width="280" height="280" rx="64" fill="white"/>
</clipPath>
</defs>
</svg>
